#!OML:ASF F:\VICON\USERDATA\INSTALL\rory3\rory3.ASF
:FULLY-SPECIFIED
:DEGREES
133
root 0.363498 18.6526 37.5004 3.43663 -1.90277 0.827194
lowerback 12.5788 -4.16769 -4.69246
upperback -0.414551 -6.21272 0.329467
thorax -6.94578 -2.85707 4.09362
lowerneck -7.17443 3.23184 -1.15509
upperneck -1.20516 4.38982 -0.0648853
head 0.790123 2.19379 0.291199
rclavicle -2.27111e-014 3.97569e-016
rhumerus -65.7389 8.41627 -86.9322
rradius 76.2959
rwrist 4.19336
rhand -41.3848 33.6023
rfingers 7.12502
rthumb -14.3024 4.11488
lclavicle -2.27111e-014 3.97569e-016
lhumerus -15.3357 -25.2495 84.4002
lradius 128.588
lwrist 31.3558
lhand -38.0021 3.30659
lfingers 7.12502
lthumb -11.0413 32.9962
rfemur -42.654 7.16848 17.7623
rtibia 49.9932
rfoot 9.91821 -5.69167
rtoes -2.38669
lfemur 33.3076 -5.61103 -27.2153
ltibia 3.81667e-014
lfoot 38.1427 2.20132
ltoes -6.67051
134
root 0.365667 18.7017 38.0472 3.72574 -2.3276 1.20222
lowerback 12.2971 -4.06067 -4.91062
upperback -0.614167 -6.10268 0.233069
thorax -7.00044 -2.79224 4.08006
lowerneck -6.86791 3.27298 -1.20101
upperneck -1.46118 4.44231 0.0353162
head 0.654342 2.22315 0.320555
rclavicle -4.4975e-014 -1.19271e-015
rhumerus -66.2198 7.93542 -86.6093
rradius 76.1805
rwrist 2.84184
rhand -41.5252 32.8719
rfingers 7.12502
rthumb -14.4377 3.39408
lclavicle -4.4975e-014 -1.19271e-015
lhumerus -16.0423 -26.0613 84.7833
lradius 128.805
lwrist 30.3196
lhand -38.0519 3.09054
lfingers 7.12502
lthumb -11.0893 32.7776
rfemur -41.9686 8.38745 16.7322
rtibia 44.4223
rfoot 9.8234 -4.70629
rtoes -4.46096
lfemur 34.0496 -5.63516 -28.0518
ltibia -3.81667e-014
lfoot 37.5334 2.38198
ltoes -8.77766
135
root 0.370439 18.7373 38.5996 3.65738 -2.49091 1.26825
lowerback 12.1519 -4.04422 -4.67401
upperback -0.581242 -6.04297 0.16019
thorax -6.92087 -2.7772 3.84784
lowerneck -6.72603 3.17627 -1.56707
upperneck -1.83462 4.33442 0.507071
head 0.497663 2.17832 0.513627
rclavicle 6.75371e-014 1.98785e-015
rhumerus -66.3312 7.44486 -86.3216
rradius 75.8054
rwrist 1.76989
rhand -42.0179 33.0173
rfingers 7.12502
rthumb -14.9124 3.57406
lclavicle 6.75371e-014 1.98785e-015
lhumerus -16.7554 -26.7952 85.159
lradius 128.96
lwrist 29.3863
lhand -37.9012 2.68491
lfingers 7.12502
lthumb -10.944 32.3797
rfemur -40.6887 9.50156 16.0611
rtibia 39.0109
rfoot 9.69943 -4.19212
rtoes -5.35314
lfemur 35.2699 -5.82996 -28.6292
ltibia 7.31528e-014
lfoot 36.0452 2.68103
ltoes -16.0472
136
root 0.378799 18.7578 39.1495 3.4825 -2.7491 1.17296
lowerback 12.1447 -3.97619 -4.19396
upperback -0.416385 -5.88366 0.0705487
thorax -6.81181 -2.72474 3.45326
lowerneck -7.33887 2.91408 -1.95661
upperneck -1.85237 4.02043 1.18589
head 0.579423 2.03232 0.792911
rclavicle 5.79457e-014 2.38542e-014
rhumerus -66.1932 6.74568 -85.8677
rradius 75.7244
rwrist 2.4037
rhand -42.2722 31.8842
rfingers 7.12502
rthumb -15.1574 2.45932
lclavicle 5.79457e-014 2.38542e-014
lhumerus -17.4964 -27.5297 85.6019
lradius 128.981
lwrist 28.4055
lhand -37.8956 2.6365
lfingers 7.12502
lthumb -10.9386 32.3316
rfemur -39.2975 10.7083 15.6277
rtibia 33.9312
rfoot 9.79473 -4.09535
rtoes -6.86954
lfemur 33.8727 -5.83347 -29.2969
ltibia 5.52105
lfoot 35.2093 3.03191
ltoes -10.1726
137
root 0.3937 18.7644 39.6897 3.31595 -2.85438 1.79571
lowerback 12.3114 -3.9453 -4.296
upperback -0.328578 -5.88265 -0.220237
thorax -6.8334 -2.72542 3.21412
lowerneck -6.42849 3.22396 -2.16409
upperneck -3.33363 4.43728 1.27191
head -0.0435411 2.24537 0.821149
rclavicle 2.50469e-014 1.86858e-014
rhumerus -66.0747 6.23343 -85.5709
rradius 75.3523
rwrist 2.02323
rhand -41.4705 32.6634
rfingers 7.12502
rthumb -14.385 3.18185
lclavicle 2.50469e-014 1.86858e-014
lhumerus -18.2739 -28.0584 86.0506
lradius 128.676
lwrist 27.5635
lhand -37.8229 2.22337
lfingers 7.12502
lthumb -10.8684 31.9221
rfemur -38.08 11.3663 14.5344
rtibia 29.5092
rfoot 9.81859 -4.16731
rtoes -9.0785
lfemur 31.7592 -6.04725 -30.7216
ltibia 12.2377
lfoot 33.4932 3.46678
ltoes -8.73832
138
root 0.388005 18.7571 40.2312 3.49889 -3.47269 2.06957
lowerback 12.0766 -3.75355 -4.48081
upperback -0.351749 -5.65077 -0.32211
thorax -6.73733 -2.61115 3.1529
lowerneck -7.17742 3.00762 -2.18808
upperneck -2.96399 4.16224 1.21992
head 0.199042 2.10808 0.825143
rclavicle -1.27222e-014 1.47101e-014
rhumerus -65.7341 5.91712 -85.3647
rradius 74.7198
rwrist 1.62316
rhand -41.1896 33.4381
rfingers 7.12502
rthumb -14.1143 3.93751
lclavicle -1.27222e-014 1.47101e-014
lhumerus -19.345 -28.3717 86.7026
lradius 128.361
lwrist 26.6601
lhand -37.8037 2.17083
lfingers 7.12502
lthumb -10.8499 31.8705
rfemur -37.5251 12.6066 13.792
rtibia 25.8699
rfoot 9.74178 -5.01241
rtoes -12.5715
lfemur 29.8548 -5.92379 -31.4975
ltibia 17.5096
lfoot 32.3764 4.51944
ltoes -8.23546
139
root 0.397606 18.7362 40.7811 3.38073 -3.7008 2.4565
lowerback 11.8824 -3.71174 -4.56876
upperback -0.212652 -5.60083 -0.452661
thorax -6.48855 -2.59721 3.03342
lowerneck -7.26582 3.00812 -2.33035
upperneck -3.35209 4.17528 1.1757
head 0.0913504 2.11695 0.831741
rclavicle -2.00773e-014 1.27222e-014
rhumerus -65.2127 5.70896 -85.0563
rradius 74.3403
rwrist 1.69579
rhand -41.2967 33.1063
rfingers 7.12502
rthumb -14.2176 3.61286
lclavicle -2.00773e-014 1.27222e-014
lhumerus -20.2704 -28.4893 87.3382
lradius 127.888
lwrist 26.0261
lhand -37.9666 2.74558
lfingers 7.12502
lthumb -11.0071 32.437
rfemur -36.5708 11.7785 13.8535
rtibia 23.2237
rfoot 9.7868 -5.24254
rtoes -12.3069
lfemur 28.4006 -6.13438 -32.42
ltibia 22.5809
lfoot 31.5633 5.40564
ltoes -8.39165
140
root 0.411551 18.7073 41.332 3.10144 -3.70136 2.5794
lowerback 11.6049 -3.73289 -4.26478
upperback 0.0960523 -5.56819 -0.563417
thorax -6.04628 -2.6124 2.7066
lowerneck -7.05197 3.00069 -2.58099
upperneck -4.11104 4.18157 1.29562
head -0.185152 2.12605 0.896734
rclavicle 9.85475e-014 2.14687e-014
rhumerus -64.6822 5.3608 -84.7208
rradius 74.1644
rwrist 2.29376
rhand -41.5944 32.803
rfingers 7.12502
rthumb -14.5044 3.33001
lclavicle 9.85475e-014 2.14687e-014
lhumerus -21.162 -28.6269 87.8704
lradius 127.262
lwrist 25.4674
lhand -38.1973 2.39264
lfingers 7.12502
lthumb -11.2296 32.0721
rfemur -35.4369 10.8573 14.3637
rtibia 21.5059
rfoot 9.102 -6.53366
rtoes -9.53695
lfemur 27.0668 -5.41443 -32.3998
ltibia 27.7102
lfoot 31.4303 4.80396
ltoes -7.53567
141
root 0.426278 18.6642 41.8768 2.74655 -3.67918 2.6741
lowerback 11.9034 -3.72852 -3.94252
upperback 0.0154721 -5.54026 -0.61672
thorax -6.33702 -2.59844 2.49692
lowerneck -6.29218 2.98276 -2.90633
upperneck -4.66258 4.1643 1.43208
head -0.488091 2.12261 0.973375
rclavicle 1.19768e-014 -9.54166e-015
rhumerus -64.7618 5.23961 -84.3948
rradius 73.9196
rwrist 2.93323
rhand -41.8199 33.2341
rfingers 7.12502
rthumb -14.7216 3.77683
lclavicle 1.19768e-014 -9.54166e-015
lhumerus -23.0461 -28.5766 89.1009
lradius 126.467
lwrist 24.9429
lhand -38.1527 2.33555
lfingers 7.12502
lthumb -11.1866 32.0173
rfemur -34.2515 9.91832 15.0016
rtibia 20.5344
rfoot 8.0195 -8.86635
rtoes -6.19123
lfemur 25.6887 -4.50051 -32.1969
ltibia 32.9343
lfoot 31.7227 3.49141
ltoes -7.2309
142
root 0.443795 18.597 42.4091 2.23257 -3.61993 3.03769
lowerback 12.487 -3.85188 -4.07504
upperback 0.263492 -5.74944 -0.744416
thorax -6.3873 -2.69853 2.50555
lowerneck -6.70311 3.28827 -2.57124
upperneck -4.8235 4.55161 1.01932
head -0.46251 2.31223 0.799111
rclavicle -6.50523e-014 -2.20651e-014
rhumerus -63.6769 5.50474 -84.3194
rradius 73.2802
rwrist 3.23687
rhand -41.6154 33.6284
rfingers 7.12502
rthumb -14.5246 4.15684
lclavicle -6.50523e-014 -2.20651e-014
lhumerus -24.2595 -27.8816 89.5864
lradius 125.577
lwrist 25.007
lhand -38.4706 3.08692
lfingers 7.12502
lthumb -11.4931 32.7519
rfemur -32.7719 8.77923 15.4973
rtibia 19.8212
rfoot 7.39672 -11.3566
rtoes -6.75709
lfemur 24.2731 -3.53584 -32.2275
ltibia 38.3686
lfoot 32.1425 2.37038
ltoes -7.81704
143
root 0.439914 18.5254 42.9363 1.9986 -4.20523 2.81296
lowerback 11.0288 -3.38329 -3.6321
upperback 1.11355 -4.97644 -0.848012
thorax -4.77106 -2.39111 1.88413
lowerneck -5.54874 3.08256 -2.65911
upperneck -6.38898 4.25034 0.824475
head -1.12723 2.16971 0.715828
rclavicle -5.59579e-014 1.07344e-014
rhumerus -62.1887 4.49206 -83.8021
rradius 72.8568
rwrist 3.3557
rhand -41.2465 33.2674
rfingers 7.12502
rthumb -14.1691 3.77061
lclavicle -5.59579e-014 1.07344e-014
lhumerus -24.4622 -28.3287 89.9561
lradius 124.31
lwrist 25.7068
lhand -38.3958 2.31747
lfingers 7.12502
lthumb -11.421 31.9864
rfemur -31.355 8.37934 16.659
rtibia 18.9149
rfoot 6.18332 -13.8132
rtoes -10.673
lfemur 22.3126 -2.22554 -31.5666
ltibia 44.086
lfoot 32.649 2.3069
ltoes -7.86074
144
root 0.435034 18.4518 43.4529 1.83579 -4.81456 2.25379
lowerback 12.3977 -3.20028 -3.24558
upperback 0.519719 -4.74695 -0.623258
thorax -6.18556 -2.24031 1.98987
lowerneck -5.43031 3.19641 -2.45418
upperneck -5.8785 4.38554 0.692321
head -0.981348 2.23123 0.643536
rclavicle 1.49089e-015 -6.95746e-015
rhumerus -62.2881 4.87927 -83.7598
rradius 72.7126
rwrist 3.37013
rhand -40.8114 32.487
rfingers 7.12502
rthumb -13.7498 2.96129
lclavicle 1.49089e-015 -6.95746e-015
lhumerus -26.9846 -27.3372 91.1574
lradius 123.359
lwrist 26.1484
lhand -38.2108 3.03333
lfingers 7.12502
lthumb -11.2425 32.7121
rfemur -28.9342 7.99461 18.1452
rtibia 16.3027
rfoot 8.19599 -14.4844
rtoes -8.12852
lfemur 19.9702 -0.949444 -30.5104
ltibia 50.5635
lfoot 32.8106 2.83567
ltoes -8.02655
145
root 0.434309 18.3665 43.9627 1.40958 -5.29192 0.84517
lowerback 12.9047 -3.12001 -1.85695
upperback 0.700717 -4.42749 -0.246412
thorax -6.36698 -2.11537 1.58385
lowerneck -5.95419 2.93192 -2.8394
upperneck -5.23443 4.08176 1.25728
head -0.712638 2.08215 0.89548
rclavicle -1.77912e-014 6.16232e-015
rhumerus -61.4352 5.3258 -83.7103
rradius 72.5826
rwrist 3.6613
rhand -40.5165 33.4339
rfingers 7.12502
rthumb -13.4657 3.88921
lclavicle -1.77912e-014 6.16232e-015
lhumerus -28.4387 -26.5076 91.8664
lradius 122.272
lwrist 27.6975
lhand -38.5379 3.01401
lfingers 7.12502
lthumb -11.558 32.6753
rfemur -26.6031 7.47251 20.5035
rtibia 15.0689
rfoot 9.82408 -13.7833
rtoes -9.85792
lfemur 18.2785 0.421601 -28.2782
ltibia 56.3593
lfoot 33.1888 3.72324
ltoes -8.20318
146
root 0.412536 18.2711 44.3475 2.27338 -6.42165 -2.97042
lowerback 14.1463 -2.87669 1.16016
upperback 0.410556 -3.55001 1.02764
thorax -7.50389 -1.74591 1.16008
lowerneck -5.69981 3.12688 -2.90292
upperneck -5.58214 4.33435 1.09252
head -0.865221 2.21141 0.84939
rclavicle 1.67973e-014 1.25234e-014
rhumerus -60.237 5.85277 -83.5738
rradius 72.6809
rwrist 4.18699
rhand -40.7952 34.4368
rfingers 7.12502
rthumb -13.7342 4.91004
lclavicle 1.67973e-014 1.25234e-014
lhumerus -29.537 -25.6309 92.4996
lradius 120.561
lwrist 25.8331
lhand -38.1307 2.80374
lfingers 7.12502
lthumb -11.1654 32.4867
rfemur -26.2398 7.84061 25.3517
rtibia 14.6462
rfoot 12.8352 -11.9995
rtoes -8.88398
lfemur 14.3674 2.70715 -22.537
ltibia 62.9812
lfoot 34.1935 3.4411
ltoes -8.65678
147
root 0.44674 18.1274 45.0163 0.560664 -5.99657 -1.19967
lowerback 13.2814 -2.89904 0.509532
upperback 1.16033 -3.74967 0.300861
thorax -6.22701 -1.84467 0.719675
lowerneck -4.67434 3.1122 -3.0192
upperneck -5.93045 4.28676 0.936012
head -1.14093 2.19109 0.800249
rclavicle -2.92959e-014 7.15625e-015
rhumerus -59.5678 6.08679 -83.4494
rradius 73.0911
rwrist 3.77553
rhand -40.8916 34.6915
rfingers 7.12502
rthumb -13.8272 5.17105
lclavicle -2.92959e-014 7.15625e-015
lhumerus -31.1012 -25.1159 93.3646
lradius 119.046
lwrist 26.2491
lhand -38.2577 2.79344
lfingers 7.12502
lthumb -11.2878 32.4697
rfemur -22.8695 5.7174 23.7762
rtibia 15.0813
rfoot 15.1289 -8.62876
rtoes 2.83485
lfemur 15.0727 3.36572 -24.0751
ltibia 67.8711
lfoot 33.9782 4.91753
ltoes -8.46603
